<svg viewBox="0 0 200 280" xmlns="http://www.w3.org/2000/svg" role="img" aria-label="retrato"
      >
    <defs>
      <radialGradient id="p3f" cx="42%" cy="34%" r="72%">
        <stop offset="0%" stop-color="#f2cba6"/>
        <stop offset="100%" stop-color="#c5a17e"/>
      </radialGradient>
      <linearGradient id="p3h" x1="0" y1="0" x2="0" y2="1">
        <stop offset="0%" stop-color="#5a5067"/>
        <stop offset="100%" stop-color="#292134"/>
      </linearGradient>
      
    </defs>

    

    <g>
      <path d="M 40 114 Q 38 52 100 42 Q 162 52 160 114 Q 100 90 40 114 Z" fill="url(#p3h)"/>
      
    <path d="M 100 176 L 100 208" stroke="#d3ac88" stroke-width="30"/>
    <path d="M 100 200 C 46 206 18 232 8 280 L 192 280 C 182 232 154 206 100 200 Z"
          fill="#8a3a2a" stroke="#5a261b" stroke-width="2.5"/>
    <path d="M 100 200 L 74 280 L 100 272 L 126 280 Z" fill="#c9a23f"/>
    <path d="M 100 200 C 76 204 62 214 52 232" stroke="#632a1e" stroke-width="3" fill="none"/>
    <path d="M 100 200 C 124 204 138 214 148 232" stroke="#632a1e" stroke-width="3" fill="none"/>
    
    

      <!-- orelhas -->
      <ellipse cx="47" cy="124" rx="8" ry="12" fill="#c5a17e"/>
      <ellipse cx="153" cy="124" rx="8" ry="12" fill="#c5a17e"/>

      <!-- rosto -->
      <path d="M 100 46 C 60 46 48 78 48 112 C 48 148 72 176 100 176 C 128 176 152 148 152 112 C 152 78 140 46 100 46 Z"
            fill="url(#p3f)" stroke="#a38569" stroke-width="2"/>

      <path d="M 62 96 Q 76 90 89 97" stroke="#2a2230" stroke-width="4.5" fill="none" stroke-linecap="round"/>
              <path d="M 138 96 Q 124 90 111 97" stroke="#2a2230" stroke-width="4.5" fill="none" stroke-linecap="round"/>
      <path d="M 63 121 Q 76 103 89 121" stroke="#231d2b" stroke-width="4.5" fill="none" stroke-linecap="round"/>
              <path d="M 111 121 Q 124 103 137 121" stroke="#231d2b" stroke-width="4.5" fill="none" stroke-linecap="round"/>
      <path d="M 100 128 L 96 138 L 103 138" stroke="#ad8d6f" stroke-width="2.4" fill="none" stroke-linecap="round" stroke-linejoin="round"/>
      <path d="M 83 148 Q 100 172 117 148 Z" fill="#7a2530" stroke="#3a2028" stroke-width="3"/>
              <path d="M 88 149 Q 100 153 112 149" fill="#fff" opacity=".9"/>
      <g transform="translate(100 74)" fill="none" stroke="#d4462f" stroke-width="2.6" opacity=".9">
        <path d="M 0 -8 C 9 -8 12 2 3 6 C -5 9 -11 3 -9 -3"/>
        <circle cx="0" cy="0" r="13" stroke-dasharray="4 5"/>
      </g>

      <path d="M 42 108 Q 40 60 76 46 L 72 66 L 96 44 L 100 66 L 124 46 L 128 68 L 152 54 Q 162 74 158 108 Q 100 82 42 108 Z" fill="url(#p3h)" stroke="#201a29" stroke-width="1.6" stroke-linejoin="round"/>
      <g >
    <rect x="38" y="70" width="124" height="24" rx="5" fill="#2b3a67"/>
    <rect x="38" y="70" width="124" height="7" rx="3" fill="#515d82"/>
    <rect x="66" y="68" width="68" height="28" rx="4" fill="#b9c0c9" stroke="#6f7379" stroke-width="2"/>
    <rect x="66" y="68" width="68" height="9" rx="4" fill="#e6ebf0" opacity=".55"/>
    <g transform="translate(100 82) scale(.9)" fill="none" stroke="#53565a" stroke-width="2.6" stroke-linecap="round">
      <path d="M 0 -7 C 7 -7 9 0 3 4 C -2 7 -7 4 -6 -1"/>
      <path d="M -6 -1 L -11 8"/>
    </g>
    
  </g>
      

      
      
      
    </g>
  </svg>
