<svg viewBox="0 0 200 280" xmlns="http://www.w3.org/2000/svg" role="img" aria-label="retrato"
      >
    <defs>
      <radialGradient id="pbhf" cx="42%" cy="34%" r="72%">
        <stop offset="0%" stop-color="#cbb9ab"/>
        <stop offset="100%" stop-color="#a19083"/>
      </radialGradient>
      <linearGradient id="pbhh" x1="0" y1="0" x2="0" y2="1">
        <stop offset="0%" stop-color="#443f4e"/>
        <stop offset="100%" stop-color="#16121f"/>
      </linearGradient>
      
    </defs>

    

    <g>
      <path d="M 32 236 Q 26 62 100 40 Q 174 62 168 236 L 144 226 Q 156 96 100 84 Q 44 96 56 226 Z" fill="url(#pbhh)"/>
      
    <path d="M 100 176 L 100 208" stroke="#ac9b8d" stroke-width="30"/>
    <path d="M 100 200 C 46 206 18 232 8 280 L 192 280 C 182 232 154 206 100 200 Z"
          fill="#1c1726" stroke="#120f19" stroke-width="2.5"/>
    <path d="M 100 200 L 74 280 L 100 272 L 126 280 Z" fill="#6a4a9c"/>
    <path d="M 100 200 C 76 204 62 214 52 232" stroke="#14111b" stroke-width="3" fill="none"/>
    <path d="M 100 200 C 124 204 138 214 148 232" stroke="#14111b" stroke-width="3" fill="none"/>
    
    <path d="M 100 196 C 40 202 12 236 2 280 L 30 280 C 40 240 66 216 100 210 C 134 216 160 240 170 280 L 198 280 C 188 236 160 202 100 196 Z" fill="#120e1a"/>

      <!-- orelhas -->
      <ellipse cx="47" cy="124" rx="8" ry="12" fill="#a19083"/>
      <ellipse cx="153" cy="124" rx="8" ry="12" fill="#a19083"/>

      <!-- rosto -->
      <path d="M 100 46 C 60 46 48 78 48 112 C 48 148 72 176 100 176 C 128 176 152 148 152 112 C 152 78 140 46 100 46 Z"
            fill="url(#pbhf)" stroke="#85786d" stroke-width="2"/>

      <path d="M 62 90 Q 76 84 90 90" stroke="#2a2230" stroke-width="4.5" fill="none" stroke-linecap="round"/>
              <path d="M 110 90 Q 124 84 138 90" stroke="#2a2230" stroke-width="4.5" fill="none" stroke-linecap="round"/>
      <ellipse cx="76" cy="118" rx="14" ry="17" fill="#fdfdfd"/>
              <circle cx="76" cy="118" r="5" fill="#6d558c"/>
              <ellipse cx="124" cy="118" rx="14" ry="17" fill="#fdfdfd"/>
              <circle cx="124" cy="118" r="5" fill="#6d558c"/>
      <path d="M 100 128 L 96 138 L 103 138" stroke="#8d7f73" stroke-width="2.4" fill="none" stroke-linecap="round" stroke-linejoin="round"/>
      <ellipse cx="100" cy="154" rx="8" ry="11" fill="#6e2028" stroke="#3a2028" stroke-width="2.5"/>
      

      <path d="M 44 100 Q 52 58 100 54 Q 148 58 156 100 Q 128 72 100 76 Q 72 72 44 100 Z M 42 96 L 32 168 L 54 104 Z M 158 96 L 168 168 L 146 104 Z" fill="url(#pbhh)" stroke="#120e18" stroke-width="1.6" stroke-linejoin="round"/>
      
      <path d="M 46 92 Q 100 74 154 92 Q 158 152 100 178 Q 42 152 46 92 Z"
              fill="#eae2d2" stroke="#8f8571" stroke-width="2.5"/>
            <path d="M 62 116 Q 78 106 92 116 Q 78 126 62 116 Z" fill="#2a2230"/>
            <path d="M 138 116 Q 122 106 108 116 Q 122 126 138 116 Z" fill="#2a2230"/>
            <path d="M 76 146 Q 100 140 124 146 Q 100 156 76 146 Z" fill="#a83a2a" opacity=".8"/>
            <path d="M 100 88 L 100 172" stroke="#c9bfa8" stroke-width="2"/>
            <path d="M 58 100 L 76 96 M 142 100 L 124 96" stroke="#a83a2a" stroke-width="3" stroke-linecap="round"/>

      
      
      <g stroke="#4a6fa8" stroke-width="3.4" fill="none" stroke-linecap="round" opacity=".85">
             <path d="M 40 62 L 34 46 M 52 54 L 50 38 M 28 76 L 14 68"/>
           </g>
    </g>
  </svg>
