<svg viewBox="0 0 200 280" xmlns="http://www.w3.org/2000/svg" role="img" aria-label="retrato"
      >
    <defs>
      <radialGradient id="p6rf" cx="42%" cy="34%" r="72%">
        <stop offset="0%" stop-color="#dead84"/>
        <stop offset="100%" stop-color="#b2855e"/>
      </radialGradient>
      <linearGradient id="p6rh" x1="0" y1="0" x2="0" y2="1">
        <stop offset="0%" stop-color="#746453"/>
        <stop offset="100%" stop-color="#3f3123"/>
      </linearGradient>
      
    </defs>

    

    <g>
      <path d="M 46 108 Q 46 54 100 46 Q 154 54 154 108 Q 100 90 46 108 Z" fill="url(#p6rh)"/>
      
    <path d="M 100 176 L 100 208" stroke="#bf8f65" stroke-width="30"/>
    <path d="M 100 200 C 46 206 18 232 8 280 L 192 280 C 182 232 154 206 100 200 Z"
          fill="#6b5a44" stroke="#463b2c" stroke-width="2.5"/>
    <path d="M 100 200 L 74 280 L 100 272 L 126 280 Z" fill="#3a3128"/>
    <path d="M 100 200 C 76 204 62 214 52 232" stroke="#4d4131" stroke-width="3" fill="none"/>
    <path d="M 100 200 C 124 204 138 214 148 232" stroke="#4d4131" stroke-width="3" fill="none"/>
    
    

      <!-- orelhas -->
      <ellipse cx="47" cy="124" rx="8" ry="12" fill="#b2855e"/>
      <ellipse cx="153" cy="124" rx="8" ry="12" fill="#b2855e"/>

      <!-- rosto -->
      <path d="M 100 46 C 60 46 48 78 48 112 C 48 148 72 176 100 176 C 128 176 152 148 152 112 C 152 78 140 46 100 46 Z"
            fill="url(#p6rf)" stroke="#946e4e" stroke-width="2"/>

      <path d="M 62 96 Q 76 90 89 97" stroke="#2a2230" stroke-width="4.5" fill="none" stroke-linecap="round"/>
              <path d="M 138 96 Q 124 90 111 97" stroke="#2a2230" stroke-width="4.5" fill="none" stroke-linecap="round"/>
      <path d="M 63 121 Q 76 103 89 121" stroke="#231d2b" stroke-width="4.5" fill="none" stroke-linecap="round"/>
              <path d="M 111 121 Q 124 103 137 121" stroke="#231d2b" stroke-width="4.5" fill="none" stroke-linecap="round"/>
      <path d="M 100 128 L 96 138 L 103 138" stroke="#9c7553" stroke-width="2.4" fill="none" stroke-linecap="round" stroke-linejoin="round"/>
      <path d="M 83 148 Q 100 172 117 148 Z" fill="#7a2530" stroke="#3a2028" stroke-width="3"/>
              <path d="M 88 149 Q 100 153 112 149" fill="#fff" opacity=".9"/>
      <path d="M 128 96 L 140 140" stroke="#8d694b" stroke-width="3.5" stroke-linecap="round"/>
              <path d="M 128 104 L 136 102 M 131 118 L 139 116" stroke="#8d694b" stroke-width="2.5" stroke-linecap="round"/>

      <path d="M 46 104 Q 48 58 100 52 Q 152 58 154 104 Q 100 84 46 104 Z" fill="url(#p6rh)" stroke="#32271c" stroke-width="1.6" stroke-linejoin="round"/>
      <g >
    <rect x="38" y="70" width="124" height="24" rx="5" fill="#5a4632"/>
    <rect x="38" y="70" width="124" height="7" rx="3" fill="#786757"/>
    <rect x="66" y="68" width="68" height="28" rx="4" fill="#b9c0c9" stroke="#6f7379" stroke-width="2"/>
    <rect x="66" y="68" width="68" height="9" rx="4" fill="#e6ebf0" opacity=".55"/>
    <g transform="translate(100 82) scale(.9)" fill="none" stroke="#53565a" stroke-width="2.6" stroke-linecap="round">
      <path d="M 0 -7 C 7 -7 9 0 3 4 C -2 7 -7 4 -6 -1"/>
      <path d="M -6 -1 L -11 8"/>
    </g>
    
  </g>
      

      
      
      
    </g>
  </svg>
