<svg viewBox="0 0 200 280" xmlns="http://www.w3.org/2000/svg" role="img" aria-label="retrato"
      >
    <defs>
      <radialGradient id="p88f" cx="42%" cy="34%" r="72%">
        <stop offset="0%" stop-color="#ebc5a3"/>
        <stop offset="100%" stop-color="#be9b7b"/>
      </radialGradient>
      <linearGradient id="p88h" x1="0" y1="0" x2="0" y2="1">
        <stop offset="0%" stop-color="#74675a"/>
        <stop offset="100%" stop-color="#3f3429"/>
      </linearGradient>
      
    </defs>

    

    <g>
      <path d="M 32 236 Q 26 62 100 40 Q 174 62 168 236 L 144 226 Q 156 96 100 84 Q 44 96 56 226 Z" fill="url(#p88h)"/>
      
    <path d="M 100 176 L 100 208" stroke="#cca684" stroke-width="30"/>
    <path d="M 100 200 C 46 206 18 232 8 280 L 192 280 C 182 232 154 206 100 200 Z"
          fill="#8a6a5a" stroke="#5a453b" stroke-width="2.5"/>
    <path d="M 100 200 L 74 280 L 100 272 L 126 280 Z" fill="#c9a05a"/>
    <path d="M 100 200 C 76 204 62 214 52 232" stroke="#634c41" stroke-width="3" fill="none"/>
    <path d="M 100 200 C 124 204 138 214 148 232" stroke="#634c41" stroke-width="3" fill="none"/>
    
    

      <!-- orelhas -->
      <ellipse cx="47" cy="124" rx="8" ry="12" fill="#be9b7b"/>
      <ellipse cx="153" cy="124" rx="8" ry="12" fill="#be9b7b"/>

      <!-- rosto -->
      <path d="M 100 46 C 60 46 48 78 48 112 C 48 148 72 176 100 176 C 128 176 152 148 152 112 C 152 78 140 46 100 46 Z"
            fill="url(#p88f)" stroke="#9e8166" stroke-width="2"/>

      <path d="M 62 96 Q 76 90 89 97" stroke="#2a2230" stroke-width="4.5" fill="none" stroke-linecap="round"/>
              <path d="M 138 96 Q 124 90 111 97" stroke="#2a2230" stroke-width="4.5" fill="none" stroke-linecap="round"/>
      <path d="M 64 118 Q 76 127 88 118" stroke="#231d2b" stroke-width="4" fill="none" stroke-linecap="round"/>
              <path d="M 112 118 Q 124 127 136 118" stroke="#231d2b" stroke-width="4" fill="none" stroke-linecap="round"/>
      <path d="M 100 128 L 96 138 L 103 138" stroke="#a7886c" stroke-width="2.4" fill="none" stroke-linecap="round" stroke-linejoin="round"/>
      <path d="M 91 152 Q 100 157 109 152" stroke="#3a2028" stroke-width="3.2" fill="none" stroke-linecap="round"/>
      

      <path d="M 44 100 Q 52 58 100 54 Q 148 58 156 100 Q 128 72 100 76 Q 72 72 44 100 Z M 42 96 L 32 168 L 54 104 Z M 158 96 L 168 168 L 146 104 Z" fill="url(#p88h)" stroke="#322920" stroke-width="1.6" stroke-linejoin="round"/>
      
      

      
      
      
    </g>
  </svg>
