<svg viewBox="0 0 32 44" xmlns="http://www.w3.org/2000/svg" width="32" height="44"
      shape-rendering="geometricPrecision" role="img" aria-label="personagem">
    <ellipse cx="16" cy="42" rx="9" ry="2.6" fill="#000" opacity=".3"/>
    <g transform="scale(-1,1) translate(-32,0)">
      <g transform="translate(0 -1)">
        
      <rect x="10" y="35" width="6" height="8" rx="2.5" fill="#b9ad9e"/>
      <rect x="16" y="35" width="6" height="8" rx="2.5" fill="#f7e6d2"/>
        <!-- tronco -->
        <path d="M 9 24 Q 16 22 23 24 L 24 36 Q 16 38 8 36 Z"
              fill="#d4462f" stroke="#7f2a1c" stroke-width=".8"/>
        <path d="M 9 24 Q 16 22 23 24 L 23 27 Q 16 25 9 27 Z" fill="#f7e6d2"/>
        
        <rect x="13" y="25" width="4.5" height="9" rx="2.2" fill="#fbd3b4"/>
        <!-- cabeça -->
        <circle cx="16" cy="16" r="11.5" fill="#fbd3b4" stroke="#b0947e" stroke-width=".8"/>
        <ellipse cx="21" cy="18" rx="1.8" ry="2.4" fill="#5eb06a"/>
            
        <path d="M 5 15 Q 5 3 17 2 Q 28 4 27 15 L 27 30 L 22 29 Q 25 11 16 10 Q 8 11 9 28 L 5 29 Z" fill="#f09ab8" stroke="#845565" stroke-width=".6" stroke-linejoin="round"/>
        <rect x="5" y="10" width="22" height="5" rx="1.5" fill="#d4462f"/><rect x="15" y="9" width="10" height="6" rx="1" fill="#b9c0c9" stroke="#7d848d" stroke-width=".7"/>
      </g>
    </g>
  </svg>
