<svg viewBox="0 0 200 280" xmlns="http://www.w3.org/2000/svg" role="img" aria-label="retrato"
      >
    <defs>
      <radialGradient id="p8lf" cx="42%" cy="34%" r="72%">
        <stop offset="0%" stop-color="#debd9a"/>
        <stop offset="100%" stop-color="#b29473"/>
      </radialGradient>
      <linearGradient id="p8lh" x1="0" y1="0" x2="0" y2="1">
        <stop offset="0%" stop-color="#5a5049"/>
        <stop offset="100%" stop-color="#29211b"/>
      </linearGradient>
      
    </defs>

    

    <g>
      <path d="M 46 108 Q 46 54 100 46 Q 154 54 154 108 Q 100 90 46 108 Z" fill="url(#p8lh)"/>
      
    <path d="M 100 176 L 100 208" stroke="#bf9e7b" stroke-width="30"/>
    <path d="M 100 200 C 46 206 18 232 8 280 L 192 280 C 182 232 154 206 100 200 Z"
          fill="#7a5a3a" stroke="#4f3b26" stroke-width="2.5"/>
    <path d="M 100 200 L 74 280 L 100 272 L 126 280 Z" fill="#c9a05a"/>
    <path d="M 100 200 C 76 204 62 214 52 232" stroke="#58412a" stroke-width="3" fill="none"/>
    <path d="M 100 200 C 124 204 138 214 148 232" stroke="#58412a" stroke-width="3" fill="none"/>
    <path d="M 62 206 Q 100 226 138 206 Q 132 232 100 238 Q 68 232 62 206 Z" fill="#8a3a2a"/>
    

      <!-- orelhas -->
      <ellipse cx="47" cy="124" rx="8" ry="12" fill="#b29473"/>
      <ellipse cx="153" cy="124" rx="8" ry="12" fill="#b29473"/>

      <!-- rosto -->
      <path d="M 100 46 C 60 46 48 78 48 112 C 48 148 72 176 100 176 C 128 176 152 148 152 112 C 152 78 140 46 100 46 Z"
            fill="url(#p8lf)" stroke="#947a5f" stroke-width="2"/>

      <path d="M 62 96 Q 76 90 89 97" stroke="#2a2230" stroke-width="4.5" fill="none" stroke-linecap="round"/>
              <path d="M 138 96 Q 124 90 111 97" stroke="#2a2230" stroke-width="4.5" fill="none" stroke-linecap="round"/>
      
    <ellipse cx="76" cy="118" rx="13" ry="15" fill="#fdfdfd"/>
    <ellipse cx="77.5" cy="119" rx="8.5" ry="11" fill="#5a4a3a"/>
    <ellipse cx="77.5" cy="119" rx="4" ry="6" fill="#322920"/>
    <circle cx="80" cy="113" r="3.2" fill="#fff" opacity=".95"/>
    <ellipse cx="124" cy="118" rx="13" ry="15" fill="#fdfdfd"/>
    <ellipse cx="122.5" cy="119" rx="8.5" ry="11" fill="#5a4a3a"/>
    <ellipse cx="122.5" cy="119" rx="4" ry="6" fill="#322920"/>
    <circle cx="120" cy="113" r="3.2" fill="#fff" opacity=".95"/>
      <path d="M 100 128 L 96 138 L 103 138" stroke="#9c8265" stroke-width="2.4" fill="none" stroke-linecap="round" stroke-linejoin="round"/>
      <path d="M 91 152 Q 100 157 109 152" stroke="#3a2028" stroke-width="3.2" fill="none" stroke-linecap="round"/>
      

      <path d="M 46 104 Q 48 58 100 52 Q 152 58 154 104 Q 100 84 46 104 Z" fill="url(#p8lh)" stroke="#201a15" stroke-width="1.6" stroke-linejoin="round"/>
      
      

      
      
      
    </g>
  </svg>
